<svg width="132" height="30" viewBox="0 0 132 30" fill="none" xmlns="http://www.w3.org/2000/svg">
<path d="M124.091 23.3841C122.408 23.3841 120.959 23.0432 119.744 22.3614C118.537 21.6725 117.607 20.6994 116.953 19.4423C116.3 18.1781 115.973 16.6831 115.973 14.9573C115.973 13.274 116.3 11.7967 116.953 10.5254C117.607 9.25413 118.526 8.26336 119.712 7.55313C120.906 6.84291 122.305 6.48779 123.91 6.48779C124.989 6.48779 125.994 6.6618 126.925 7.00981C127.862 7.35072 128.679 7.86563 129.375 8.55455C130.078 9.24347 130.625 10.11 131.016 11.154C131.406 12.1909 131.602 13.4054 131.602 14.7975V16.0439H117.784V13.2314H127.33C127.33 12.578 127.188 11.9992 126.903 11.4949C126.619 10.9906 126.225 10.5965 125.721 10.3124C125.224 10.0212 124.645 9.87558 123.984 9.87558C123.295 9.87558 122.685 10.0354 122.152 10.355C121.626 10.6675 121.215 11.0901 120.916 11.6227C120.618 12.1483 120.465 12.7342 120.458 13.3805V16.0546C120.458 16.8642 120.607 17.5638 120.906 18.1533C121.211 18.7428 121.641 19.1973 122.195 19.5169C122.749 19.8365 123.406 19.9963 124.165 19.9963C124.67 19.9963 125.131 19.9253 125.55 19.7832C125.969 19.6412 126.328 19.4281 126.626 19.144C126.925 18.86 127.152 18.5119 127.308 18.1L131.506 18.377C131.293 19.3855 130.856 20.2662 130.195 21.019C129.542 21.7648 128.697 22.3472 127.66 22.7662C126.63 23.1781 125.44 23.3841 124.091 23.3841Z" fill="#101828"/>
<path d="M97.6492 29.2009V6.70086H102.124V9.44944H102.326C102.525 9.0091 102.813 8.56166 103.189 8.10711C103.572 7.64546 104.07 7.26194 104.68 6.95654C105.298 6.64404 106.065 6.48779 106.982 6.48779C108.175 6.48779 109.276 6.80029 110.284 7.42529C111.293 8.04319 112.099 8.97714 112.702 10.2271C113.306 11.47 113.608 13.029 113.608 14.904C113.608 16.7293 113.313 18.2705 112.724 19.5276C112.141 20.7776 111.346 21.7257 110.337 22.372C109.336 23.0112 108.214 23.3308 106.971 23.3308C106.09 23.3308 105.341 23.1852 104.723 22.894C104.112 22.6028 103.612 22.2371 103.221 21.7967C102.83 21.3493 102.532 20.8983 102.326 20.4438H102.188V29.2009H97.6492ZM102.092 14.8827C102.092 15.8557 102.227 16.7044 102.496 17.4288C102.766 18.1533 103.157 18.7179 103.668 19.1227C104.18 19.5205 104.801 19.7193 105.533 19.7193C106.271 19.7193 106.896 19.5169 107.408 19.1121C107.919 18.7001 108.306 18.132 108.569 17.4075C108.839 16.676 108.974 15.8344 108.974 14.8827C108.974 13.9381 108.842 13.1071 108.58 12.3898C108.317 11.6725 107.93 11.1114 107.418 10.7065C106.907 10.3017 106.278 10.0993 105.533 10.0993C104.794 10.0993 104.169 10.2946 103.658 10.6852C103.153 11.0759 102.766 11.6298 102.496 12.3472C102.227 13.0645 102.092 13.9097 102.092 14.8827Z" fill="#101828"/>
<path d="M89.4753 23.0646V6.70099H94.0137V23.0646H89.4753ZM91.7552 4.59162C91.0804 4.59162 90.5016 4.3679 90.0186 3.92045C89.5428 3.46591 89.3049 2.92259 89.3049 2.29048C89.3049 1.66548 89.5428 1.12926 90.0186 0.681819C90.5016 0.227273 91.0804 0 91.7552 0C92.4299 0 93.0052 0.227273 93.481 0.681819C93.964 1.12926 94.2054 1.66548 94.2054 2.29048C94.2054 2.92259 93.964 3.46591 93.481 3.92045C93.0052 4.3679 92.4299 4.59162 91.7552 4.59162Z" fill="#101828"/>
<path d="M67.1857 23.0643L62.7326 6.70068H67.3242L69.8597 17.695H70.0089L72.6509 6.70068H77.1573L79.842 17.6311H79.9805L82.4734 6.70068H87.0543L82.6119 23.0643H77.8072L74.9947 12.7731H74.7923L71.9798 23.0643H67.1857Z" fill="#101828"/>
<path d="M56.2207 7.52091C56.1355 6.66153 55.7697 5.99392 55.1234 5.51807C54.4771 5.04221 53.6 4.80429 52.492 4.80429C51.7392 4.80429 51.1035 4.91082 50.5851 5.12389C50.0666 5.32986 49.6689 5.6175 49.3919 5.98682C49.122 6.35614 48.987 6.77517 48.987 7.24392C48.9728 7.63454 49.0545 7.97545 49.2321 8.26665C49.4167 8.55784 49.6689 8.80997 49.9885 9.02304C50.3081 9.229 50.6774 9.41011 51.0964 9.56636C51.5155 9.71551 51.9629 9.84335 52.4387 9.94988L54.399 10.4186C55.3507 10.6317 56.2243 10.9158 57.0197 11.2709C57.8152 11.626 58.5041 12.0628 59.0865 12.5813C59.6689 13.0997 60.1199 13.7105 60.4395 14.4137C60.7662 15.1168 60.9331 15.9229 60.9402 16.832C60.9331 18.1672 60.5922 19.3249 59.9174 20.305C59.2498 21.278 58.2839 22.0344 57.0197 22.5742C55.7626 23.1068 54.2463 23.3732 52.4707 23.3732C50.7093 23.3732 49.1752 23.1033 47.8684 22.5635C46.5687 22.0237 45.5531 21.2247 44.8216 20.1665C44.0971 19.1012 43.7172 17.7837 43.6816 16.2141H48.1454C48.1951 16.9456 48.4047 17.5564 48.774 18.0465C49.1504 18.5294 49.6511 18.8952 50.2761 19.1438C50.9082 19.3853 51.622 19.506 52.4174 19.506C53.1987 19.506 53.877 19.3924 54.4522 19.1651C55.0346 18.9378 55.4856 18.6218 55.8052 18.2169C56.1248 17.8121 56.2846 17.3469 56.2846 16.8213C56.2846 16.3313 56.139 15.9193 55.8478 15.5855C55.5637 15.2517 55.1447 14.9676 54.5907 14.7333C54.0439 14.4989 53.3727 14.2858 52.5772 14.0941L50.2015 13.4975C48.362 13.05 46.9096 12.3505 45.8443 11.3987C44.7789 10.447 44.2498 9.16508 44.2569 7.55287C44.2498 6.23184 44.6014 5.07773 45.3116 4.09051C46.0289 3.10329 47.0126 2.3327 48.2626 1.77872C49.5126 1.22474 50.9331 0.947754 52.524 0.947754C54.1433 0.947754 55.5566 1.22474 56.764 1.77872C57.9785 2.3327 58.9231 3.10329 59.5978 4.09051C60.2726 5.07773 60.6206 6.22119 60.6419 7.52091H56.2207Z" fill="#101828"/>
<path d="M30.1758 13.6043V23.0645H25.6375V6.70086H29.9627V9.58793H30.1545C30.5167 8.63623 31.124 7.88339 31.9762 7.32941C32.8285 6.76833 33.8619 6.48779 35.0764 6.48779C36.2127 6.48779 37.2035 6.73637 38.0487 7.23353C38.8938 7.73069 39.5508 8.44092 40.0196 9.36421C40.4883 10.2804 40.7227 11.3742 40.7227 12.6455V23.0645H36.1843V13.4551C36.1914 12.4537 35.9357 11.6725 35.4173 11.1114C34.8988 10.5432 34.185 10.2591 33.2759 10.2591C32.6652 10.2591 32.1254 10.3905 31.6566 10.6533C31.195 10.9161 30.8328 11.2996 30.57 11.8038C30.3143 12.301 30.1829 12.9011 30.1758 13.6043Z" fill="#101828"/>
<path d="M17.4636 23.0646V6.70099H22.002V23.0646H17.4636ZM19.7434 4.59162C19.0687 4.59162 18.4899 4.3679 18.0069 3.92045C17.5311 3.46591 17.2932 2.92259 17.2932 2.29048C17.2932 1.66548 17.5311 1.12926 18.0069 0.681819C18.4899 0.227273 19.0687 0 19.7434 0C20.4182 0 20.9934 0.227273 21.4693 0.681819C21.9522 1.12926 22.1937 1.66548 22.1937 2.29048C22.1937 2.92259 21.9522 3.46591 21.4693 3.92045C20.9934 4.3679 20.4182 4.59162 19.7434 4.59162Z" fill="#101828"/>
<path d="M0 23.0643V1.24609H14.446V5.04936H4.61293V10.2482H13.4872V14.0515H4.61293V23.0643H0Z" fill="#101828"/>
</svg>
